<svg xmlns="http://www.w3.org/2000/svg" width="40" height="40" fill="none"><defs/><path fill="#000" d="M34.072 13.082C30.084 9.697 25.208 7.019 20 7.019c-5.21 0-10.085 2.679-14.072 6.063C2.454 16.03.314 18.947.225 19.069c-.3.412-.3.97 0 1.38.09.123 2.23 3.04 5.703 5.988C9.916 29.823 14.792 32.5 20 32.5c5.21 0 10.085-2.679 14.072-6.063 3.474-2.948 5.614-5.865 5.703-5.987.3-.412.3-.97 0-1.38-.09-.123-2.23-3.04-5.703-5.988zm-1.557 11.602C29.565 27.181 25 30.156 20 30.156c-5 0-9.565-2.975-12.515-5.472a38.166 38.166 0 01-4.826-4.925 38.167 38.167 0 014.826-4.924C10.435 12.338 15 9.363 20 9.363c5 0 9.565 2.975 12.515 5.472a38.159 38.159 0 014.826 4.924 38.152 38.152 0 01-4.826 4.925z"/><path fill="#000" d="M20 12.912a6.855 6.855 0 00-6.847 6.848A6.855 6.855 0 0020 26.607a6.855 6.855 0 006.847-6.847A6.855 6.855 0 0020 12.912zm0 11.351a4.509 4.509 0 01-4.504-4.503A4.509 4.509 0 0120 15.256a4.509 4.509 0 014.504 4.504A4.509 4.509 0 0120 24.263z"/></svg>